<svg width="45" height="35" viewBox="0 0 45 35" fill="none" xmlns="http://www.w3.org/2000/svg">
<path d="M28.6176 18.5668L38.2781 0.9492C38.3452 0.815733 38.4973 0.625333 38.7335 0.3752C38.9679 0.125067 39.3222 0 39.7946 0H43.7376C44.108 0 44.4113 0.116667 44.6466 0.349067C44.8819 0.5824 45 0.882 45 1.24787V33.7521C45 34.0853 44.8819 34.3681 44.6466 34.6015C44.4113 34.8339 44.108 34.9505 43.7376 34.9505H39.4913C39.12 34.9505 38.8252 34.8339 38.6069 34.6015C38.3868 34.3681 38.2781 34.0853 38.2781 33.7521V12.1324L32.0589 23.8485L28.6176 18.5668ZM25.8643 32.7535C25.4154 33.04 24.9373 33.2976 24.428 33.5272C22.2539 34.5081 19.4825 35 16.1121 35H1.21323C0.875906 35 0.588661 34.8833 0.353386 34.6509C0.11811 34.4185 0 34.1348 0 33.8016V1.29733C0 0.931467 0.117165 0.631867 0.353386 0.398533C0.589606 0.166133 0.875906 0.0485333 1.21323 0.0485333H4.66394C8.06646 0.0485333 10.8728 0.5656 13.0791 1.59693C15.0104 2.5004 16.5288 3.78467 17.6343 5.45253L17.7751 5.66907L29.195 23.2167L32.2337 27.8852L35.8857 33.4955L35.9187 33.5459V33.7503C35.9187 34.118 35.7997 34.4167 35.5654 34.65C35.3291 34.8824 35.0419 34.9991 34.7055 34.9991H30.7625C30.2901 34.9991 29.9546 34.8824 29.7515 34.65C29.5493 34.4167 29.3981 34.2673 29.297 34.2001L29.0589 33.8408L27.4337 31.3917L14.7893 12.3312C14.7893 12.3312 10.7528 5.80067 7.02992 5.79133H7.02614V29.2572H17.3877C19.2737 29.2572 20.8072 28.9912 21.9865 28.4573C22.2557 28.336 22.509 28.1979 22.7452 28.0429L25.8643 32.7525V32.7535Z" fill="white"/>
</svg>
