<svg width="184" height="103" viewBox="0 0 184 103" fill="white" xmlns="http://www.w3.org/2000/svg">
    <path
        d="M19.7015 11.473C19.7015 18.2149 15.0335 22.5896 7.85568 22.5896H0V0.290924H7.85568C15.0335 0.290924 19.7015 4.69829 19.7015 11.473ZM7.69446 18.7895C12.4284 18.7895 15.0994 16.1058 15.0994 11.473C15.0994 6.84015 12.4284 4.06191 7.69446 4.06191H4.50675V18.7895H7.69446Z"
        fill="white" fill-opacity="0.1" />
    <path d="M23.0797 0.290924H27.5865V22.5896H23.0797V0.290924Z" fill="white"
        fill-opacity="0.1" />
    <path
        d="M52.8573 7.00014H47.6727C46.6431 5.11647 44.7744 4.12372 42.3928 4.12372C38.3697 4.12372 35.5667 6.96741 35.5667 11.4075C35.5667 15.8476 38.399 18.7567 42.5833 18.7567C46.0605 18.7567 48.2809 16.7749 48.9551 13.6112H41.2276V10.1929H53.3959V14.0912C52.4945 18.6295 48.4055 22.7823 42.4184 22.7823C35.8818 22.7823 30.9244 18.084 30.9244 11.4075C30.9244 4.73101 35.8818 0 42.3855 0C47.4052 0 51.399 2.52369 52.8463 6.9965L52.8573 7.00014Z"
        fill="white" fill-opacity="0.1" />
    <path d="M56.7521 0.290924H61.2589V22.5896H56.7521V0.290924Z" fill="white"
        fill-opacity="0.1" />
    <path d="M64.5089 0.290924H80.9896V3.90191H75.0026V22.5932H70.4959V3.90191H64.5089V0.290924Z"
        fill="white" fill-opacity="0.1" />
    <path
        d="M98.053 18.3422H89.1055L87.6252 22.5932H82.8913L90.9705 0.261826H96.2174L104.297 22.5932H99.5333L98.053 18.3422ZM93.5793 5.43284L90.3293 14.7603H96.8329L93.5829 5.43284H93.5793Z"
        fill="white" fill-opacity="0.1" />
    <path d="M111.83 0.290924V19.044H119.235V22.5896H107.323V0.290924H111.83Z"
        fill="white" fill-opacity="0.1" />
    <path
        d="M19.2178 40.0008V62.3322H14.7111L4.50675 47.03V62.3322H0V40.0008H4.50675L14.7111 55.3357V40.0008H19.2178Z"
        fill="white" fill-opacity="0.1" />
    <path
        d="M36.6952 43.6409H28.1654V49.2337H35.7316V52.7792H28.1654V58.6885H36.6952V62.3322H23.6586V40.0008H36.6952V43.6445V43.6409Z"
        fill="white" fill-opacity="0.1" />
    <path d="M39.5935 40.0299H56.0743V43.6409H50.0873V62.3322H45.5805V43.6409H39.5935V40.0299Z"
        fill="white" fill-opacity="0.1" />
    <path
        d="M57.8477 40.0299H62.6768L66.6377 57.3466L71.2067 40.0299H76.2301L80.5427 57.2521L84.5328 40.0299H89.3949L83.1185 62.3285H77.8056L73.5883 46.4482L69.1768 62.3285L63.897 62.3613L57.844 40.0299H57.8477Z"
        fill="white" fill-opacity="0.1" />
    <path
        d="M102.75 62.554C96.4079 62.554 91.227 57.8266 91.227 51.1174C91.227 44.4082 96.4079 39.7099 102.75 39.7099C109.093 39.7099 114.244 44.4373 114.244 51.1174C114.244 57.7975 109.126 62.554 102.75 62.554ZM102.75 58.5612C106.806 58.5612 109.606 55.6557 109.606 51.1174C109.606 46.5791 106.806 43.7354 102.75 43.7354C98.6943 43.7354 95.862 46.5791 95.862 51.1174C95.862 55.6557 98.6613 58.5612 102.75 58.5612Z"
        fill="white" fill-opacity="0.1" />
    <path
        d="M126.024 40.0299C131.432 40.0299 134.136 43.1281 134.136 46.8664C134.136 49.5828 132.623 52.3283 129.018 53.2883L134.393 62.3285H129.179L124.222 53.6374H122.096V62.3285H117.59V40.0299H126.024ZM125.863 43.7391H122.096V50.2883H125.863C128.373 50.2883 129.501 48.9792 129.501 46.9646C129.501 44.95 128.377 43.7391 125.863 43.7391Z"
        fill="white" fill-opacity="0.1" />
    <path
        d="M142.732 52.3938V62.3285H138.225V40.0299H142.732V50.0301L150.91 40.0299H156.351L147.081 51.0847L156.612 62.3322H150.914L142.736 52.3974L142.732 52.3938Z"
        fill="white" fill-opacity="0.1" />
    <path
        d="M0 79.7725H5.11864L12.2672 96.3547L19.412 79.7725H24.4977V102.071H19.9909V87.5654L13.9709 102.071H10.5597L4.50675 87.5654V102.071H0V79.7725Z"
        fill="white" fill-opacity="0.1" />
    <path
        d="M42.7152 97.8238H33.764L32.2837 102.075H27.5498L35.629 79.7434H40.8759L48.9551 102.075H44.1918L42.7116 97.8238H42.7152ZM38.2414 84.9181L34.9914 94.2455H41.4951L38.2451 84.9181H38.2414Z"
        fill="white" fill-opacity="0.1" />
    <path
        d="M60.4198 79.7725C65.8279 79.7725 68.532 82.8708 68.532 86.609C68.532 89.3254 67.0187 92.0709 63.4133 93.031L68.7885 102.071H63.5746L58.6171 93.3801H56.492V102.071H51.9852V79.7725H60.4198ZM60.2586 83.4781H56.492V90.0273H60.2586C62.7684 90.0273 63.897 88.7182 63.897 86.7036C63.897 84.689 62.7684 83.4781 60.2586 83.4781Z"
        fill="white" fill-opacity="0.1" />
    <path
        d="M77.1278 92.1364V102.071H72.621V79.7725H77.1278V89.7727L85.3059 79.7725H90.747L81.477 90.8273L91.0071 102.075H85.3095L77.1315 92.14L77.1278 92.1364Z"
        fill="white" fill-opacity="0.1" />
    <path
        d="M107.001 83.3835H98.4707V88.9763H106.037V92.5219H98.4707V98.4311H107.001V102.075H93.964V79.7434H107.001V83.3871V83.3835Z"
        fill="white" fill-opacity="0.1" />
    <path d="M109.899 79.7725H126.38V83.3835H120.393V102.075H115.886V83.3835H109.899V79.7725Z"
        fill="white" fill-opacity="0.1" />
    <path d="M129.663 79.7725H134.169V102.071H129.663V79.7725Z" fill="white"
        fill-opacity="0.1" />
    <path
        d="M157.832 79.7398V102.071H153.325L143.121 86.769V102.071H138.614V79.7398H143.121L153.325 95.0746V79.7398H157.832Z"
        fill="white" fill-opacity="0.1" />
    <path
        d="M183.099 86.4817H177.918C176.888 84.5981 175.02 83.6053 172.638 83.6053C168.615 83.6053 165.812 86.449 165.812 90.8891C165.812 95.3292 168.644 98.2383 172.829 98.2383C176.306 98.2383 178.526 96.2565 179.204 93.0928H171.477V89.6745H183.645V93.5728C182.743 98.1111 178.654 102.264 172.667 102.264C166.131 102.264 161.177 97.5656 161.177 90.8891C161.177 84.2126 166.134 79.4816 172.638 79.4816C177.661 79.4816 181.652 82.0053 183.099 86.4781V86.4817Z"
        fill="white" fill-opacity="0.1" />
    <defs>
        <linearGradient id="paint0_linear_221_182" x1="9.85073" y1="0.290924" x2="9.85073"
            y2="22.5896" gradientUnits="userSpaceOnUse">
            <stop />
            <stop offset="1" stop-opacity="0" />
        </linearGradient>
        <linearGradient id="paint1_linear_221_182" x1="25.3331" y1="0.290924" x2="25.3331"
            y2="22.5896" gradientUnits="userSpaceOnUse">
            <stop />
            <stop offset="1" stop-opacity="0" />
        </linearGradient>
        <linearGradient id="paint2_linear_221_182" x1="42.1601" y1="0" x2="42.1601" y2="22.7823"
            gradientUnits="userSpaceOnUse">
            <stop />
            <stop offset="1" stop-opacity="0" />
        </linearGradient>
        <linearGradient id="paint3_linear_221_182" x1="59.0055" y1="0.290924" x2="59.0055"
            y2="22.5896" gradientUnits="userSpaceOnUse">
            <stop />
            <stop offset="1" stop-opacity="0" />
        </linearGradient>
        <linearGradient id="paint4_linear_221_182" x1="72.7492" y1="0.290924" x2="72.7492"
            y2="22.5932" gradientUnits="userSpaceOnUse">
            <stop />
            <stop offset="1" stop-opacity="0" />
        </linearGradient>
        <linearGradient id="paint5_linear_221_182" x1="93.5939" y1="0.261826" x2="93.5939"
            y2="22.5932" gradientUnits="userSpaceOnUse">
            <stop />
            <stop offset="1" stop-opacity="0" />
        </linearGradient>
        <linearGradient id="paint6_linear_221_182" x1="113.279" y1="0.290924" x2="113.279"
            y2="22.5896" gradientUnits="userSpaceOnUse">
            <stop />
            <stop offset="1" stop-opacity="0" />
        </linearGradient>
        <linearGradient id="paint7_linear_221_182" x1="9.60892" y1="40.0008" x2="9.60892"
            y2="62.3322" gradientUnits="userSpaceOnUse">
            <stop />
            <stop offset="1" stop-opacity="0" />
        </linearGradient>
        <linearGradient id="paint8_linear_221_182" x1="30.1769" y1="40.0008" x2="30.1769"
            y2="62.3322" gradientUnits="userSpaceOnUse">
            <stop />
            <stop offset="1" stop-opacity="0" />
        </linearGradient>
        <linearGradient id="paint9_linear_221_182" x1="47.8339" y1="40.0299" x2="47.8339"
            y2="62.3322" gradientUnits="userSpaceOnUse">
            <stop />
            <stop offset="1" stop-opacity="0" />
        </linearGradient>
        <linearGradient id="paint10_linear_221_182" x1="73.6195" y1="40.0299" x2="73.6195"
            y2="62.3613" gradientUnits="userSpaceOnUse">
            <stop />
            <stop offset="1" stop-opacity="0" />
        </linearGradient>
        <linearGradient id="paint11_linear_221_182" x1="102.736" y1="39.7099" x2="102.736"
            y2="62.554" gradientUnits="userSpaceOnUse">
            <stop />
            <stop offset="1" stop-opacity="0" />
        </linearGradient>
        <linearGradient id="paint12_linear_221_182" x1="125.991" y1="40.0299" x2="125.991"
            y2="62.3285" gradientUnits="userSpaceOnUse">
            <stop />
            <stop offset="1" stop-opacity="0" />
        </linearGradient>
        <linearGradient id="paint13_linear_221_182" x1="147.419" y1="40.0299" x2="147.419"
            y2="62.3322" gradientUnits="userSpaceOnUse">
            <stop />
            <stop offset="1" stop-opacity="0" />
        </linearGradient>
        <linearGradient id="paint14_linear_221_182" x1="12.2488" y1="79.7725" x2="12.2488"
            y2="102.071" gradientUnits="userSpaceOnUse">
            <stop />
            <stop offset="1" stop-opacity="0" />
        </linearGradient>
        <linearGradient id="paint15_linear_221_182" x1="38.2524" y1="79.7434" x2="38.2524"
            y2="102.075" gradientUnits="userSpaceOnUse">
            <stop />
            <stop offset="1" stop-opacity="0" />
        </linearGradient>
        <linearGradient id="paint16_linear_221_182" x1="60.3868" y1="79.7725" x2="60.3868"
            y2="102.071" gradientUnits="userSpaceOnUse">
            <stop />
            <stop offset="1" stop-opacity="0" />
        </linearGradient>
        <linearGradient id="paint17_linear_221_182" x1="81.8141" y1="79.7725" x2="81.8141"
            y2="102.075" gradientUnits="userSpaceOnUse">
            <stop />
            <stop offset="1" stop-opacity="0" />
        </linearGradient>
        <linearGradient id="paint18_linear_221_182" x1="100.482" y1="79.7434" x2="100.482"
            y2="102.075" gradientUnits="userSpaceOnUse">
            <stop />
            <stop offset="1" stop-opacity="0" />
        </linearGradient>
        <linearGradient id="paint19_linear_221_182" x1="118.139" y1="79.7725" x2="118.139"
            y2="102.075" gradientUnits="userSpaceOnUse">
            <stop />
            <stop offset="1" stop-opacity="0" />
        </linearGradient>
        <linearGradient id="paint20_linear_221_182" x1="131.916" y1="79.7725" x2="131.916"
            y2="102.071" gradientUnits="userSpaceOnUse">
            <stop />
            <stop offset="1" stop-opacity="0" />
        </linearGradient>
        <linearGradient id="paint21_linear_221_182" x1="148.223" y1="79.7398" x2="148.223"
            y2="102.071" gradientUnits="userSpaceOnUse">
            <stop />
            <stop offset="1" stop-opacity="0" />
        </linearGradient>
        <linearGradient id="paint22_linear_221_182" x1="172.411" y1="79.4816" x2="172.411"
            y2="102.264" gradientUnits="userSpaceOnUse">
            <stop />
            <stop offset="1" stop-opacity="0" />
        </linearGradient>
    </defs>
</svg>