<svg width="380" height="380" viewBox="0 0 380 380" fill="none" xmlns="http://www.w3.org/2000/svg">
<g clip-path="url(#clip0_350_346)">
<path d="M190 228.068C211.041 228.068 228.097 211.025 228.097 190.002C228.097 168.979 211.041 151.937 190 151.937C168.959 151.937 151.903 168.979 151.903 190.002C151.903 211.025 168.959 228.068 190 228.068Z" stroke="#AEAEAD" stroke-width="1.5" stroke-miterlimit="10"/>
<path d="M365.962 202.691C372.976 202.691 378.661 197.01 378.661 190.002C378.661 182.994 372.976 177.313 365.962 177.313C358.949 177.313 353.263 182.994 353.263 190.002C353.263 197.01 358.949 202.691 365.962 202.691Z" stroke="#AEAEAD" stroke-width="1.5" stroke-miterlimit="10"/>
<path d="M14.0378 202.691C21.0513 202.691 26.7369 197.01 26.7369 190.002C26.7369 182.994 21.0513 177.313 14.0378 177.313C7.02423 177.313 1.33864 182.994 1.33864 190.002C1.33864 197.01 7.02423 202.691 14.0378 202.691Z" stroke="#AEAEAD" stroke-width="1.5" stroke-miterlimit="10"/>
<path d="M190 26.7154C197.014 26.7154 202.699 21.0346 202.699 14.0269C202.699 7.01922 197.014 1.33838 190 1.33838C182.986 1.33838 177.301 7.01922 177.301 14.0269C177.301 21.0346 182.986 26.7154 190 26.7154Z" stroke="#AEAEAD" stroke-width="1.5" stroke-miterlimit="10"/>
<path d="M277.874 51.0924C284.887 51.0924 290.573 45.4115 290.573 38.4039C290.573 31.3962 284.887 25.7153 277.874 25.7153C270.86 25.7153 265.175 31.3962 265.175 38.4039C265.175 45.4115 270.86 51.0924 277.874 51.0924Z" stroke="#AEAEAD" stroke-width="1.5" stroke-miterlimit="10"/>
<path d="M342.174 115.271C349.187 115.271 354.873 109.59 354.873 102.583C354.873 95.5749 349.187 89.894 342.174 89.894C335.16 89.894 329.474 95.5749 329.474 102.583C329.474 109.59 335.16 115.271 342.174 115.271Z" stroke="#AEAEAD" stroke-width="1.5" stroke-miterlimit="10"/>
<path d="M152 189.999L27 189.999" stroke="#AEAEAD" stroke-width="1.5" stroke-miterlimit="10"/>
<path d="M353 189.999H228" stroke="#AEAEAD" stroke-width="1.5" stroke-miterlimit="10"/>
<path d="M190 379.662C197.014 379.662 202.699 373.981 202.699 366.973C202.699 359.966 197.014 354.285 190 354.285C182.986 354.285 177.301 359.966 177.301 366.973C177.301 373.981 182.986 379.662 190 379.662Z" stroke="#AEAEAD" stroke-width="1.5" stroke-miterlimit="10"/>
<path d="M190 26.999L190 151.999" stroke="#AEAEAD" stroke-width="1.5" stroke-miterlimit="10"/>
<path d="M190 228.068V354.285" stroke="#AEAEAD" stroke-width="1.5" stroke-miterlimit="10"/>
<path d="M37.8222 115.271C44.8357 115.271 50.5213 109.59 50.5213 102.583C50.5213 95.5749 44.8357 89.894 37.8222 89.894C30.8087 89.894 25.1231 95.5749 25.1231 102.583C25.1231 109.59 30.8087 115.271 37.8222 115.271Z" stroke="#AEAEAD" stroke-width="1.5" stroke-miterlimit="10"/>
<path d="M102.126 51.0924C109.14 51.0924 114.825 45.4115 114.825 38.4039C114.825 31.3962 109.14 25.7153 102.126 25.7153C95.1128 25.7153 89.4272 31.3962 89.4272 38.4039C89.4272 45.4115 95.1128 51.0924 102.126 51.0924Z" stroke="#AEAEAD" stroke-width="1.5" stroke-miterlimit="10"/>
<path d="M37.8222 290.106C44.8357 290.106 50.5213 284.425 50.5213 277.418C50.5213 270.41 44.8357 264.729 37.8222 264.729C30.8087 264.729 25.1231 270.41 25.1231 277.418C25.1231 284.425 30.8087 290.106 37.8222 290.106Z" stroke="#AEAEAD" stroke-width="1.5" stroke-miterlimit="10"/>
<path d="M102.126 354.285C109.14 354.285 114.825 348.604 114.825 341.596C114.825 334.588 109.14 328.907 102.126 328.907C95.1128 328.907 89.4272 334.588 89.4272 341.596C89.4272 348.604 95.1128 354.285 102.126 354.285Z" stroke="#AEAEAD" stroke-width="1.5" stroke-miterlimit="10"/>
<path d="M277.874 354.285C284.887 354.285 290.573 348.604 290.573 341.596C290.573 334.588 284.887 328.907 277.874 328.907C270.86 328.907 265.175 334.588 265.175 341.596C265.175 348.604 270.86 354.285 277.874 354.285Z" stroke="#AEAEAD" stroke-width="1.5" stroke-miterlimit="10"/>
<path d="M342.174 290.106C349.187 290.106 354.873 284.425 354.873 277.418C354.873 270.41 349.187 264.729 342.174 264.729C335.16 264.729 329.474 270.41 329.474 277.418C329.474 284.425 335.16 290.106 342.174 290.106Z" stroke="#AEAEAD" stroke-width="1.5" stroke-miterlimit="10"/>
<path d="M271.74 49.5149L209.083 157.05" stroke="#AEAEAD" stroke-width="1.5" stroke-miterlimit="10"/>
<path d="M108.256 49.5149L170.917 157.05" stroke="#AEAEAD" stroke-width="1.5" stroke-miterlimit="10"/>
<path d="M330.943 108.5L222.895 170.796" stroke="#AEAEAD" stroke-width="1.5" stroke-miterlimit="10"/>
<path d="M49.0567 108.5L157.101 170.796" stroke="#AEAEAD" stroke-width="1.5" stroke-miterlimit="10"/>
<path d="M49.0567 271.568L157.101 209.272" stroke="#AEAEAD" stroke-width="1.5" stroke-miterlimit="10"/>
<path d="M330.943 271.568L222.895 209.272" stroke="#AEAEAD" stroke-width="1.5" stroke-miterlimit="10"/>
<path d="M108.256 331.187L170.917 223.652" stroke="#AEAEAD" stroke-width="1.5" stroke-miterlimit="10"/>
<path d="M271.74 331.187L209.083 223.652" stroke="#AEAEAD" stroke-width="1.5" stroke-miterlimit="10"/>
</g>
<defs>
<clipPath id="clip0_350_346">
<rect width="380" height="380" fill="white"/>
</clipPath>
</defs>
</svg>
