<svg width="28" height="28" viewBox="0 0 13 13" fill="none" xmlns="http://www.w3.org/2000/svg"
    xmlns:xlink="http://www.w3.org/1999/xlink">
    <defs>

        <mask id="circle" mask-type="alpha" maskUnits="userSpaceOnUse" x="0" y="0" width="28"
            height="28">
            <circle cx="50%" cy="50%" r="50%" fill="white" />
        </mask>
        <pattern id="star" viewBox="0,0,10,10" width="100%" height="100%" stroke="white">

        </pattern>
    </defs>
    <g mask="url(#circle)" stroke="red" stroke-width="1">
        <rect x="0" y="0" width="100%" height="100%" fill="white" stroke="none" />
        <path d="M0, 0.5 H28" />
        <path d="M0, 2.5 H28" />
        <path d="M0, 4.5 H28" />
        <path d="M0, 6.5 H28" />
        <path d="M0, 8.5 H28" />
        <path d="M0,10.5 H28" />
        <path d="M0,12.5 H28" />
        <rect x="0" y="0" width="50%" height="7" fill="blue" stroke="none" />

        <rect x="0" y="0" width="50%" height="7" fill="url(#star)" stroke="none" />
        <g stroke="none" fill="white">
            <circle cx="6" cy="1.5" r=".2" />
            <circle cx="6" cy="0.5" r=".2" />
            <circle cx="6" cy="2.5" r=".2" />
            <circle cx="6" cy="3.5" r=".2" />
            <circle cx="6" cy="4.5" r=".2" />
            <circle cx="6" cy="5.5" r=".2" />
            <circle cx="6" cy="6.5" r=".2" />

            <circle cx="5" cy="1" r=".2" />
            <circle cx="5" cy="2" r=".2" />
            <circle cx="5" cy="3" r=".2" />
            <circle cx="5" cy="4" r=".2" />
            <circle cx="5" cy="5" r=".2" />
            <circle cx="5" cy="6" r=".2" />

            <circle cx="4" cy="1.5" r=".2" />
            <circle cx="4" cy="0.5" r=".2" />
            <circle cx="4" cy="2.5" r=".2" />
            <circle cx="4" cy="3.5" r=".2" />
            <circle cx="4" cy="4.5" r=".2" />
            <circle cx="4" cy="5.5" r=".2" />
            <circle cx="4" cy="6.5" r=".2" />

            <circle cx="3" cy="1" r=".2" />
            <circle cx="3" cy="2" r=".2" />
            <circle cx="3" cy="3" r=".2" />
            <circle cx="3" cy="4" r=".2" />
            <circle cx="3" cy="5" r=".2" />
            <circle cx="3" cy="6" r=".2" />

            <circle cx="2" cy="1.5" r=".2" />
            <circle cx="2" cy="0.5" r=".2" />
            <circle cx="2" cy="2.5" r=".2" />
            <circle cx="2" cy="3.5" r=".2" />
            <circle cx="2" cy="4.5" r=".2" />
            <circle cx="2" cy="5.5" r=".2" />
            <circle cx="2" cy="6.5" r=".2" />

            <circle cx="1" cy="1" r=".2" />
            <circle cx="1" cy="2" r=".2" />
            <circle cx="1" cy="3" r=".2" />
            <circle cx="1" cy="4" r=".2" />
            <circle cx="1" cy="5" r=".2" />
            <circle cx="1" cy="6" r=".2" />

            <circle cx="0" cy="1.5" r=".2" />
            <circle cx="0" cy="0.5" r=".2" />
            <circle cx="0" cy="2.5" r=".2" />
            <circle cx="0" cy="3.5" r=".2" />
            <circle cx="0" cy="4.5" r=".2" />
            <circle cx="0" cy="5.5" r=".2" />
            <circle cx="0" cy="6.5" r=".2" />

        </g>

    </g>


</svg>